<?xml version="1.0" encoding="UTF-8"?>
<!DOCTYPE svg PUBLIC "-//W3C//DTD SVG 1.1//EN" "http://www.w3.org/Graphics/SVG/1.1/DTD/svg11.dtd">
<!-- Creator: CorelDRAW X7 -->
<svg xmlns="http://www.w3.org/2000/svg" xml:space="preserve" width="214px" height="240px" version="1.1" style="shape-rendering:geometricPrecision; text-rendering:geometricPrecision; image-rendering:optimizeQuality; fill-rule:evenodd; clip-rule:evenodd"
viewBox="0 0 214 240"
 xmlns:xlink="http://www.w3.org/1999/xlink">
 <defs>
  <style type="text/css">
   <![CDATA[
    .fil1 {fill:#25185A}
    .fil0 {fill:#FAD605}
   ]]>
  </style>
 </defs>
 <g id="Layer_x0020_1">
  <metadata id="CorelCorpID_0Corel-Layer"/>
  <g id="_2011356311568">
   <rect class="fil0" width="214" height="240"/>
   <path class="fil1" d="M0 0l214 0 0 240 -214 0 0 -240zm7 7l200 0 0 226 -200 0 0 -226z"/>
   <path class="fil1" d="M13 226l11 0c-1,-2 -1,-4 -1,-5 0,-26 21,-47 46,-47 25,0 46,21 46,47 0,1 0,3 0,5l86 0 0 -70 -12 0c1,2 1,3 1,5 0,21 -16,37 -36,37 -20,0 -37,-16 -37,-37l0 -147 -75 0 0 14c33,0 60,28 60,61 0,34 -27,62 -60,62l-29 0 0 75z"/>
  </g>
 </g>
</svg>
